<svg width="19" height="21" viewBox="0 0 19 21" fill="none" xmlns="http://www.w3.org/2000/svg">
<path d="M5.02423 1.31C5.77519 1.56439 6.4896 1.91605 7.14923 2.356C8.08081 2.11791 9.03871 1.9983 10.0002 2C10.9932 2 11.9512 2.124 12.8492 2.355C13.5086 1.91548 14.2227 1.56416 14.9732 1.31C15.6702 1.073 16.6632 0.689001 17.2532 1.342C17.6532 1.786 17.7532 2.53 17.8242 3.098C17.9042 3.732 17.9232 4.558 17.7132 5.378C18.5162 6.415 19.0002 7.652 19.0002 9C19.0002 11.042 17.8942 12.815 16.2572 14.043C15.4694 14.6265 14.5956 15.084 13.6672 15.399C13.8812 15.889 14.0002 16.431 14.0002 17V20C14.0002 20.2652 13.8949 20.5196 13.7073 20.7071C13.5198 20.8946 13.2654 21 13.0002 21H7.00023C6.73501 21 6.48066 20.8946 6.29312 20.7071C6.10559 20.5196 6.00023 20.2652 6.00023 20V19.009C5.04523 19.126 4.24423 19.022 3.56323 18.733C2.85123 18.431 2.35523 17.963 1.98223 17.515C1.62823 17.091 1.24223 16.135 0.684229 15.949C0.559605 15.9075 0.444374 15.8419 0.345117 15.7558C0.245859 15.6698 0.164519 15.5651 0.105739 15.4476C-0.0129713 15.2104 -0.032579 14.9357 0.0512294 14.684C0.135038 14.4323 0.315397 14.2242 0.552631 14.1055C0.789864 13.9868 1.06454 13.9672 1.31623 14.051C1.98223 14.273 2.41623 14.753 2.71323 15.139C3.19323 15.759 3.58323 16.569 4.34323 16.892C4.65623 17.025 5.11523 17.112 5.83323 17.014L6.00023 16.98C6.00214 16.4358 6.11547 15.8977 6.33323 15.399C5.40482 15.084 4.53104 14.6265 3.74323 14.043C2.10623 12.815 1.00023 11.043 1.00023 9C1.00023 7.654 1.48323 6.418 2.28423 5.382C2.07423 4.562 2.09223 3.734 2.17223 3.099L2.17723 3.061C2.25023 2.479 2.33523 1.794 2.74323 1.342C3.33323 0.689001 4.32723 1.074 5.02323 1.311L5.02423 1.31Z" fill="#015F68"/>
</svg>
