<svg width="300" height="147" viewBox="0 0 300 147" fill="none" xmlns="http://www.w3.org/2000/svg">
<path d="M270.78 34.5667C269.02 33.8316 263.801 22.2308 263.801 22.2308C263.801 22.2308 252.909 27.1541 252.096 25.4591C251.283 23.764 261.427 16.0507 261.427 16.0507C261.427 16.0507 254.813 2.99422 255.632 0.30537C256.452 -2.38348 264.203 13.5689 264.203 13.5689C264.203 13.5689 273.274 6.99919 274.477 9.33833C275.68 11.6775 266.892 18.7692 266.892 18.7692C266.892 18.7692 272.539 35.3018 270.78 34.5667Z" fill="$white"/>
<path d="M24.5876 15.648C25.4532 34.2837 25.2269 51.9122 23.909 68.5333C23.3975 70.5228 22.4828 71.9582 21.1649 72.8397C16.1291 74.804 9.81476 74.3884 2.22177 71.5931C1.15954 70.9383 0.54974 69.9813 0.392373 68.7222C-0.591175 62.7789 0.274347 54.5816 2.98894 44.1305L9.03776 43.6772C7.68046 55.5386 8.04437 62.2752 10.1295 63.8869C11.5458 65.2972 12.5687 65.1083 13.1982 63.3203C14.3981 56.697 14.8505 45.1378 14.5555 28.6426C10.1492 29.4737 6.9428 29.9774 4.93636 30.1537C5.31011 23.1778 5.85106 18.7707 6.55922 16.9323L24.5876 15.648Z" fill="$white"/>
<path d="M42.8191 57.1629C43.3305 60.1346 44.8747 60.8901 47.4516 59.4294C47.3336 43.4379 47.1467 31.8913 46.891 24.7896C49.3892 23.9837 52.5955 23.2786 56.5101 22.6742C57.3166 41.4359 57.3067 58.2836 56.4805 73.2174L47.5106 72.3486V70.762C45.2091 71.5931 42.8289 72.2604 40.37 72.7641C35.5113 73.4944 32.8066 70.9635 32.2558 65.1713C30.7805 36.8399 30.81 21.755 32.3443 19.9166L43.0551 21.4653C42.3076 39.6478 42.2289 51.547 42.8191 57.1629Z" fill="$white"/>
<path d="M88.1374 42.5061C88.3538 50.8922 88.2653 58.1325 87.8718 64.2269C87.085 69.1629 85.0097 72.1597 81.646 73.2174C76.6496 74.1744 71.7515 74.0736 66.9518 72.9152C65.1617 72.3108 64.0405 70.7368 63.5881 68.1933C62.5455 49.5575 62.7422 35.14 64.1782 24.9407C64.6306 21.8683 65.3879 20.0299 66.4502 19.4255C72.5482 15.4969 78.4298 14.3132 84.095 15.8746C85.3736 16.756 86.2195 18.4811 86.6326 21.0498C87.085 26.1369 87.1342 31.161 86.7801 36.1221L76.9545 36.1599C77.2495 31.5261 77.0627 27.0309 76.3938 22.6742C75.7644 21.4905 75.1152 21.629 74.4464 23.0897C72.4203 41.4736 72.5875 54.9342 74.948 63.4714C75.5775 65.4861 76.1283 65.6372 76.6004 63.9247C77.6036 59.5428 78.1642 54.2794 78.2823 48.1347L74.5644 47.7569L74.4169 42.5061H88.1374Z" fill="$white"/>
<path d="M106.487 57.1629C106.998 60.1346 108.542 60.8901 111.119 59.4294C111.001 43.4379 110.814 31.8913 110.559 24.7896C113.057 23.9837 116.263 23.2786 120.178 22.6742C120.984 41.4359 120.975 58.2836 120.148 73.2174L111.178 72.3486V70.762C108.877 71.5931 106.497 72.2604 104.038 72.7641C99.1791 73.4944 96.4743 70.9635 95.9236 65.1713C94.4482 36.8399 94.4778 21.755 96.0121 19.9166L106.723 21.4653C105.975 39.6478 105.897 51.547 106.487 57.1629Z" fill="$white"/>
<path d="M136.344 49.6079C136.462 55.8534 137.16 61.5952 138.439 66.8334C139.068 67.9666 139.717 67.8659 140.386 66.5312C141.114 60.462 141.468 55.803 141.448 52.5544L151.54 53.8387C151.579 57.5407 151.294 61.4315 150.684 65.5113C150.212 68.357 149.445 70.0317 148.382 70.5354C142.284 73.8092 136.786 74.4388 131.888 72.4241C130.275 71.719 129.223 70.1072 128.731 67.5889C126.272 52.8817 125.741 40.5544 127.138 30.607C128.141 26.1243 130.197 23.0771 133.305 21.4653C138.222 19.2492 142.393 18.4307 145.815 19.01C149.14 19.2114 150.959 20.1936 151.274 21.9564C151.786 31.6773 152.022 40.5292 151.982 48.5124L136.344 49.6079ZM140.77 45.4904C141.085 40.1263 140.848 34.0319 140.062 27.2072C139.472 23.6059 138.94 22.586 138.468 24.1474C137.131 31.9039 136.413 39.119 136.314 45.7926L140.77 45.4904Z" fill="$white"/>
<path d="M161.686 28.5293C162.316 24.1978 163.093 19.8284 164.017 15.4213C166.535 15.0436 169.328 14.8169 172.397 14.7414C171.905 19.6521 171.512 24.2481 171.217 28.5293H177.59V34.0823L170.833 34.9511C170.125 49.0035 170.597 59.0139 172.25 64.9824C172.879 66.9971 173.646 66.7452 174.551 64.2269C175.594 60.0213 176.312 54.3424 176.705 47.1903L182.783 47.1525C183.787 53.4484 184.092 59.6561 183.698 65.7757C182.911 70.6865 180.836 73.6707 177.472 74.7284C172.869 75.6854 168.099 75.3202 163.162 73.6329C161.785 72.8522 160.86 70.5354 160.388 66.6823C159.601 56.7096 159.729 46.5607 160.772 36.2355L158.854 36.4999V28.5293H161.686Z" fill="$white"/>
<path d="M199.067 49.6079C199.185 55.8534 199.884 61.5952 201.162 66.8334C201.792 67.9666 202.441 67.8659 203.11 66.5312C203.838 60.462 204.192 55.803 204.172 52.5544L214.263 53.8387C214.303 57.5407 214.017 61.4315 213.408 65.5113C212.935 68.357 212.168 70.0317 211.106 70.5354C205.008 73.8092 199.51 74.4388 194.612 72.4241C192.999 71.719 191.947 70.1072 191.455 67.5889C188.996 52.8817 188.465 40.5544 189.861 30.607C190.865 26.1243 192.92 23.0771 196.028 21.4653C200.946 19.2492 205.116 18.4307 208.539 19.01C211.863 19.2114 213.683 20.1936 213.998 21.9564C214.509 31.6773 214.745 40.5292 214.706 48.5124L199.067 49.6079ZM203.493 45.4904C203.808 40.1263 203.572 34.0319 202.785 27.2072C202.195 23.6059 201.664 22.586 201.192 24.1474C199.854 31.9039 199.136 39.119 199.038 45.7926L203.493 45.4904Z" fill="$white"/>
<path d="M238.809 75.1439C236.252 72.3989 233.96 68.8229 231.934 64.4158C231.836 67.8407 231.708 71.2405 231.55 74.6151C228.442 75.421 225.521 75.4839 222.787 74.804C221.862 53.0454 221.715 34.0319 222.344 17.7634C225.374 16.7812 228.787 15.7991 232.583 14.8169C239.271 13.6837 243.225 14.2251 244.445 16.4412C248.674 27.0939 248.969 38.2124 245.33 49.7968C243.697 53.6498 241.406 55.9541 238.455 56.7096C237.373 57.037 236.321 57.3518 235.298 57.654C236.34 60.9027 237.707 64.2143 239.399 67.5889C240.068 68.974 240.501 69.2132 240.697 68.3066C241.17 66.6697 241.337 63.5847 241.199 59.0517C243.894 58.5228 246.323 58.334 248.487 58.4851C248.605 63.4462 247.445 68.9488 245.005 74.9928C243.314 77.7127 241.248 77.763 238.809 75.1439ZM235.888 25.885C235.376 24.1726 234.157 23.6941 232.229 24.4496C232.386 34.0193 232.386 43.375 232.229 52.5166C234.216 51.0811 235.465 49.3309 235.976 47.2658C237.098 38.8545 237.068 31.7276 235.888 25.885Z" fill="$white"/>
<path d="M256.096 70.4598C256.214 55.3749 256.244 43.0476 256.185 33.4779C259.785 32.9238 263.315 32.9112 266.778 33.4401C266.699 47.0895 266.709 59.2532 266.807 69.931C263.168 70.9131 259.598 71.0894 256.096 70.4598Z" fill="$white"/>
<path d="M284.389 51.0056C284.232 55.7904 284.743 60.7768 285.924 65.9646C286.593 67.123 287.281 67.0223 287.989 65.6624C288.619 58.5354 289.012 52.1262 289.169 46.4348C286.848 46.737 285.432 47.5932 284.92 49.0035C284.684 49.2553 284.507 49.9227 284.389 51.0056ZM289.228 41.864C289.228 36.7014 288.992 32.2439 288.52 28.4915C288.009 26.2754 287.104 25.6836 285.806 26.7161C283.819 27.8494 282.186 32.8357 280.908 41.6751L274.623 41.184C274.406 34.1075 274.81 27.5849 275.832 21.6164C276.01 20.3573 276.649 19.4003 277.75 18.7455C283.927 17.1338 290.055 17.3479 296.133 19.3877C297.471 20.2691 298.415 21.7172 298.966 23.7319C300.402 41.3099 300.342 55.5134 298.788 66.3423C298.297 69.2384 297.49 70.9383 296.369 71.442C288.835 73.1796 283.042 73.2426 278.99 71.6308C277.278 70.9257 276.157 69.2888 275.626 66.7201C274.583 60.7012 274.259 55.312 274.652 50.5523C274.947 48.1347 276.255 46.2333 278.577 44.8482C281.881 43.312 285.432 42.3173 289.228 41.864Z" fill="$white"/>
<path d="M70.7396 129.926C70.7396 133.325 70.3659 136.725 69.6184 140.125C62.0451 142.971 55.8094 143.6 50.9113 142.014C48.8065 141.208 47.4984 139.709 46.987 137.518C45.0395 123.516 44.8133 111.202 46.3083 100.574C47.0165 95.4368 48.7377 91.9992 51.4719 90.2616C56.9601 87.4662 61.5631 86.5974 65.2809 87.6551C68.448 88.5869 70.1593 91.8482 70.4151 97.4389C70.5331 104.037 70.5134 109.225 70.356 113.002L60.1468 115.873C60.5796 106.203 60.3927 99.2899 59.5862 95.1346C58.9961 92.7925 58.4453 92.6666 57.9338 94.7569C54.7275 109.892 54.4718 122.673 57.1667 133.099C58.2879 135.214 62.8122 134.156 70.7396 129.926Z" fill="$white"/>
<path d="M79.2634 136.159C76.8046 120.721 76.4898 105.85 78.3192 91.5459C78.4569 90.2364 79.0471 89.2417 80.0896 88.5617C87.5056 85.6908 93.6823 85.2627 98.6197 87.2773C99.8983 88.2091 100.803 89.6824 101.334 91.697C102.672 109.905 102.633 123.995 101.216 133.968C100.744 136.964 99.977 138.727 98.9147 139.256C92.8167 142.681 87.3187 143.336 82.4206 141.22C80.8076 140.49 79.7552 138.803 79.2634 136.159ZM89.0006 90.5638C86.0893 106.807 86.0794 121.741 88.9711 135.365C89.6005 136.549 90.2497 136.448 90.9185 135.063C92.9446 117.082 92.8561 102.45 90.6529 91.1682C90.0235 89.1283 89.4727 88.9269 89.0006 90.5638Z" fill="$white"/>
<path d="M109.297 125.544C108.393 111.919 108.452 101.254 109.474 93.548C109.927 90.2994 110.684 88.3854 111.746 87.8062C117.844 84.079 123.343 83.3487 128.241 85.6152C129.854 86.4463 130.916 88.2847 131.427 91.1304C132.43 98.0307 132.735 105.51 132.342 113.569L122.162 115.647C122.929 109.502 122.772 101.632 121.69 92.037C121.493 91.0297 121.13 91.8356 120.598 94.4547C119.556 99.7935 119.064 106.165 119.123 113.569C119.064 116.238 119.585 118.215 120.687 119.5C122.103 120.608 124.965 120.62 129.273 119.537C132.794 118.631 134.525 120.394 134.466 124.826C134.466 133.665 131.034 139.835 124.169 143.336C116.222 146.257 111.796 146.811 110.891 144.998C109.396 142.026 108.668 138.614 108.707 134.761C109.14 133.879 110.202 133.338 111.894 133.136C112.523 135.806 113.802 136.637 115.73 135.63C118.562 134.522 120.431 132.331 121.336 129.057C121.769 126.916 121.464 125.871 120.421 125.921C118.73 126.324 115.887 127.055 111.894 128.112C110.497 128.641 109.632 127.785 109.297 125.544Z" fill="$white"/>
<path d="M142.135 142.051C140.758 113.267 140.482 94.8827 141.308 86.8996L154.734 86.5218C155.383 93.1451 156.278 101.582 157.419 111.831C159.642 103.47 161.343 96.1167 162.523 89.7705C164.255 89.7705 167.441 89.4935 172.084 88.9394C172.123 113.09 172.064 131.361 171.907 143.751C170.746 145.212 167.667 146.295 162.671 147C162.651 138.538 162.612 129.485 162.553 119.84L157.98 140.352C156.662 140.377 154.773 139.961 152.314 139.105C151.075 128.956 149.885 119.525 148.744 110.811C148.626 127.76 148.557 138.677 148.537 143.562L142.135 142.051Z" fill="$white"/>
<path d="M180.401 140.087C180.519 125.002 180.548 112.675 180.489 103.105C184.089 102.551 187.62 102.539 191.082 103.067C191.003 116.717 191.013 128.88 191.112 139.558C187.473 140.54 183.902 140.717 180.401 140.087Z" fill="$white"/>
<path d="M223.536 129.926C223.536 133.325 223.162 136.725 222.414 140.125C214.841 142.971 208.605 143.6 203.707 142.014C201.603 141.208 200.294 139.709 199.783 137.518C197.836 123.516 197.609 111.202 199.104 100.574C199.813 95.4368 201.534 91.9992 204.268 90.2616C209.756 87.4662 214.359 86.5974 218.077 87.6551C221.244 88.5869 222.955 91.8482 223.211 97.4389C223.329 104.037 223.309 109.225 223.152 113.002L212.943 115.873C213.376 106.203 213.189 99.2899 212.382 95.1346C211.792 92.7925 211.241 92.6666 210.73 94.7569C207.524 109.892 207.268 122.673 209.963 133.099C211.084 135.214 215.608 134.156 223.536 129.926Z" fill="$white"/>
<path d="M240.115 120.633C239.957 125.418 240.469 130.404 241.649 135.592C242.318 136.75 243.006 136.65 243.715 135.29C244.344 128.163 244.737 121.754 244.895 116.062C242.574 116.364 241.157 117.221 240.646 118.631C240.41 118.883 240.233 119.55 240.115 120.633ZM244.954 111.491C244.954 106.329 244.718 101.871 244.246 98.1189C243.734 95.9027 242.829 95.3109 241.531 96.3434C239.544 97.4767 237.912 102.463 236.633 111.302L230.348 110.811C230.132 103.735 230.535 97.2122 231.558 91.2437C231.735 89.9846 232.374 89.0276 233.476 88.3728C239.653 86.7611 245.78 86.9751 251.858 89.015C253.196 89.8964 254.14 91.3445 254.691 93.3592C256.127 110.937 256.068 125.141 254.514 135.97C254.022 138.866 253.216 140.566 252.094 141.069C244.56 142.807 238.767 142.87 234.715 141.258C233.004 140.553 231.882 138.916 231.351 136.347C230.309 130.329 229.984 124.939 230.378 120.18C230.673 117.762 231.981 115.861 234.302 114.476C237.607 112.939 241.157 111.945 244.954 111.491Z" fill="$white"/>
<path d="M198.826 78.2785C198.508 80.6126 190.281 88.8763 190.281 88.8763C190.281 88.8763 195.636 101.979 194.441 103.25C193.246 104.522 185.84 92.7636 185.84 92.7636C185.84 92.7636 176.686 103.001 174.49 102.345C172.295 101.689 183.527 89.5989 183.527 89.5989C183.527 89.5989 177.157 79.0375 178.795 77.1802C180.432 75.3229 187.165 85.4508 187.165 85.4508C187.165 85.4508 199.144 75.9444 198.826 78.2785Z" fill="$white"/>
</svg>
