<svg width="24" height="24" viewBox="0 0 24 24" fill="none" xmlns="http://www.w3.org/2000/svg">
<path opacity="0.16" d="M20.5558 10.778C20.5558 13.3712 19.5256 15.8582 17.6919 17.6919C15.8582 19.5256 13.3712 20.5557 10.778 20.5557C8.18478 20.5557 5.69777 19.5256 3.86408 17.6919C2.0304 15.8582 1.00024 13.3712 1.00024 10.778C1.00024 8.18475 2.0304 5.69774 3.86408 3.86405C5.69777 2.03037 8.18478 1.00021 10.778 1.00021C13.3712 1.00021 15.8582 2.03037 17.6919 3.86405C19.5256 5.69774 20.5558 8.18475 20.5558 10.778Z" fill="#FFE099"/>
<path d="M23.0002 23.0002L17.6921 17.6921ZM17.6921 17.6921C18.6001 16.7841 19.3203 15.7062 19.8117 14.5199C20.3031 13.3336 20.556 12.0621 20.556 10.778C20.556 9.49394 20.3031 8.22245 19.8117 7.03613C19.3203 5.8498 18.6001 4.77188 17.6921 3.86391C16.7841 2.95594 15.7062 2.2357 14.5199 1.74431C13.3336 1.25292 12.0621 1 10.778 1C9.49394 1 8.22245 1.25292 7.03613 1.74431C5.8498 2.2357 4.77188 2.95594 3.86391 3.86391C2.03018 5.69765 1 8.18472 1 10.778C1 13.3713 2.03018 15.8584 3.86391 17.6921C5.69764 19.5258 8.18472 20.556 10.778 20.556C13.3713 20.556 15.8584 19.5258 17.6921 17.6921Z" fill="#FFE099"/>
<path d="M23.0002 23.0002L17.6921 17.6921M17.6921 17.6921C18.6001 16.7841 19.3203 15.7062 19.8117 14.5199C20.3031 13.3336 20.556 12.0621 20.556 10.778C20.556 9.49394 20.3031 8.22245 19.8117 7.03613C19.3203 5.8498 18.6001 4.77188 17.6921 3.86391C16.7841 2.95594 15.7062 2.2357 14.5199 1.74431C13.3336 1.25292 12.0621 1 10.778 1C9.49394 1 8.22245 1.25292 7.03613 1.74431C5.8498 2.2357 4.77188 2.95594 3.86391 3.86391C2.03018 5.69765 1 8.18472 1 10.778C1 13.3713 2.03018 15.8584 3.86391 17.6921C5.69764 19.5258 8.18472 20.556 10.778 20.556C13.3713 20.556 15.8584 19.5258 17.6921 17.6921Z" stroke="#015F68" stroke-width="2" stroke-linecap="round" stroke-linejoin="round"/>
</svg>
