<svg width="26" height="26" viewBox="0 0 26 26" fill="none" xmlns="http://www.w3.org/2000/svg">
<path d="M24.0002 24.0002L18.6921 18.6921M18.6921 18.6921C19.6001 17.7841 20.3203 16.7062 20.8117 15.5199C21.3031 14.3336 21.556 13.0621 21.556 11.778C21.556 10.4939 21.3031 9.22245 20.8117 8.03613C20.3203 6.8498 19.6001 5.77188 18.6921 4.86391C17.7841 3.95594 16.7062 3.2357 15.5199 2.74431C14.3336 2.25292 13.0621 2 11.778 2C10.4939 2 9.22245 2.25292 8.03613 2.74431C6.8498 3.2357 5.77188 3.95594 4.86391 4.86391C3.03018 6.69765 2 9.18472 2 11.778C2 14.3713 3.03018 16.8584 4.86391 18.6921C6.69764 20.5258 9.18472 21.556 11.778 21.556C14.3713 21.556 16.8584 20.5258 18.6921 18.6921Z" stroke="#015F68" stroke-width="3" stroke-linecap="round" stroke-linejoin="round"/>
</svg>
