<svg width="22" height="22" viewBox="0 0 22 22" fill="none" xmlns="http://www.w3.org/2000/svg">
<path d="M19.9249 5.36C16.7899 0.499996 10.3699 -0.940004 5.40493 2.075C0.559928 5.09 -1.00007 11.66 2.13493 16.505L2.38993 16.895L1.33993 20.825L5.26993 19.775L5.65993 20.03C7.35493 20.945 9.19993 21.47 11.0299 21.47C12.9949 21.47 14.9599 20.945 16.6549 19.895C21.4999 16.745 22.9399 10.31 19.9249 5.33V5.36ZM17.1799 15.47C16.6549 16.25 15.9949 16.775 15.0799 16.91C14.5549 16.91 13.8949 17.165 11.2849 16.13C9.06493 15.08 7.21993 13.37 5.91493 11.405C5.13493 10.49 4.72993 9.305 4.60993 8.12C4.60993 7.07 4.99993 6.155 5.65993 5.495C5.91493 5.24 6.18493 5.105 6.43993 5.105H7.09993C7.35493 5.105 7.62493 5.105 7.75993 5.63C8.01493 6.29 8.67493 7.865 8.67493 8C8.80993 8.135 8.74993 9.14 8.14993 9.71C7.81993 10.085 7.75993 10.1 7.89493 10.37C8.41993 11.15 9.07993 11.945 9.72493 12.605C10.5049 13.265 11.2999 13.79 12.2149 14.18C12.4699 14.315 12.7399 14.315 12.8749 14.045C13.0099 13.79 13.6549 13.13 13.9249 12.86C14.1799 12.605 14.3149 12.605 14.5849 12.725L16.6849 13.775C16.9399 13.91 17.2099 14.03 17.3449 14.165C17.4799 14.555 17.4799 15.08 17.2099 15.47H17.1799Z" fill="white"/>
</svg>
